<svg xmlns="http://www.w3.org/2000/svg" viewBox="0 0 390 500" preserveAspectRatio="none"><defs><clipPath id="__lottie_element_45"><rect width="390" height="500" x="0" y="0"></rect></clipPath></defs><g clip-path="url(#__lottie_element_45)"><g transform="matrix(1.9299999475479126,0,0,1.9299999475479126,-46.249664306640625,8.74962043762207)" opacity="1" style="display: block;"><g opacity="1" transform="matrix(1,0,0,1,124.97899627685547,125)"><path fill='#ffc107' fill-opacity="1" d=" M-67.07599639892578,124.8280029296875 C-62.422000885009766,125.73799896240234 -58.01499938964844,122.7020034790039 -53.8380012512207,123.3280029296875 C-44.69900131225586,124.69499969482422 -37.768001556396484,121.4209976196289 -31.417999267578125,115.59500122070312 C-30.30900001525879,114.5790023803711 -29.301000595092773,113.16899871826172 -27.979999542236328,112.71600341796875 C-20.684999465942383,110.21099853515625 -16.05900001525879,103.41999816894531 -9.116000175476074,100.74800109863281 C-2.552000045776367,98.21600341796875 1.1019999980926514,91.9209976196289 7.6539998054504395,89.53399658203125 C14.734000205993652,86.95500183105469 18.851999282836914,79.43699645996094 26.538000106811523,77.66699981689453 C29.961000442504883,74.72100067138672 33.72700119018555,71.9000015258789 34.301998138427734,67.0199966430664 C34.99700164794922,61.152000427246094 39.11899948120117,57.87699890136719 43.13999938964844,54.49399948120117 C44.26100158691406,53.551998138427734 45.78499984741211,53.095001220703125 47.09400177001953,52.36399841308594 C54.45100021362305,48.25400161743164 60.292999267578125,42.66600036621094 63.89899826049805,34.952999114990234 C64.1760025024414,34.362998962402344 64.2040023803711,33.167999267578125 63.83599853515625,32.85100173950195 C62.77000045776367,31.933000564575195 61.48400115966797,30.79599952697754 60.207000732421875,30.687000274658203 C56.069000244140625,30.334999084472656 53.7239990234375,34.05500030517578 50.33700180053711,35.56700134277344 C39.38100051879883,40.45500183105469 29.729999542236328,47.69900131225586 19.11400032043457,53.2239990234375 C12.859000205993652,61.01900100708008 2.996999979019165,64.05899810791016 -4.086999893188477,70.8219985961914 C-8.947999954223633,75.46800231933594 -16.136999130249023,76.94499969482422 -20.583999633789062,82.36799621582031 C-21.076000213623047,82.97000122070312 -22.68199920654297,82.66500091552734 -23.775999069213867,82.77799987792969 C-23.61199951171875,82.04399871826172 -23.650999069213867,81.16400146484375 -23.24799919128418,80.61000061035156 C-17.993000030517578,73.36599731445312 -10.994999885559082,67.27400207519531 -8.732999801635742,58.05699920654297 C-8.401000022888184,56.70899963378906 -7.150000095367432,55.481998443603516 -6.0920000076293945,54.435001373291016 C3.13700008392334,45.3120002746582 6.039999961853027,32.00299835205078 14.949000358581543,22.677000045776367 C15.883000373840332,15.444000244140625 21.236000061035156,10.895999908447266 25.280000686645508,5.5320000648498535 C27.072999954223633,3.1480000019073486 29.268999099731445,0.7570000290870667 30.077999114990234,-1.9900000095367432 C31.628999710083008,-7.252999782562256 34.375999450683594,-11.656000137329102 38.178001403808594,-15.329000473022461 C42.229000091552734,-19.243999481201172 41.8390007019043,-25.29599952697754 45.21099853515625,-29.246999740600586 C50.665000915527344,-35.62699890136719 53.84600067138672,-43.17599868774414 57.819000244140625,-50.37300109863281 C60.35900115966797,-54.97200012207031 62.382999420166016,-59.808998107910156 65.0009994506836,-64.29100036621094 C68.0250015258789,-69.47200012207031 71.9520034790039,-74.12100219726562 73.28800201416016,-80.17400360107422 C80.53199768066406,-88.85199737548828 82.74400329589844,-100.55799865722656 90.6709976196289,-108.90799713134766 C92.6760025024414,-111.01799774169922 92.39800262451172,-114.53399658203125 92.125,-117.56999969482422 C91.73799896240234,-121.96600341796875 86.27200317382812,-126.03700256347656 82.44300079345703,-124.76300048828125 C66.23200225830078,-119.36699676513672 61.94900131225586,-116.80000305175781 50.95000076293945,-104.33999633789062 C44.53499984741211,-97.072998046875 37.1619987487793,-90.36799621582031 34.44599914550781,-80.49400329589844 C29.573999404907227,-74.76200103759766 24.673999786376953,-69.05000305175781 19.82900047302246,-63.29100036621094 C14.085000038146973,-56.46099853515625 6.876999855041504,-50.724998474121094 5.0320000648498535,-41.09000015258789 C4.5279998779296875,-38.459999084472656 1.4140000343322754,-36.388999938964844 -0.3050000071525574,-33.91999816894531 C-2.000999927520752,-31.48200035095215 -4.044000148773193,-29.051000595092773 -4.864999771118164,-26.292999267578125 C-6.192999839782715,-21.83099937438965 -8.842000007629395,-18.291000366210938 -11.159000396728516,-14.434000015258789 C-13.824000358581543,-9.984000205993652 -15.550999641418457,-4.986999988555908 -18.070999145507812,-0.43799999356269836 C-20.267000198364258,3.5199999809265137 -20.82200050354004,7.98199987411499 -22.93199920654297,12.0649995803833 C-28.054000854492188,21.98900032043457 -32.07899856567383,32.47999954223633 -37.321998596191406,44.53799819946289 C-39.869998931884766,58.20199966430664 -46.9379997253418,72.42400360107422 -51.68899917602539,87.41999816894531 C-51.81399917602539,87.81900024414062 -52.81800079345703,88.18599700927734 -53.37300109863281,88.13500213623047 C-53.99100112915039,88.07599639892578 -54.87799835205078,87.66999816894531 -55.108001708984375,87.16200256347656 C-61.18000030517578,73.95899963378906 -64.7509994506836,59.349998474121094 -67.44300079345703,37.64899826049805 C-67.61499786376953,36.24700164794922 -68.1780014038086,34.60599899291992 -69.13099670410156,33.64099884033203 C-72.81199645996094,29.913000106811523 -76.65699768066406,26.341999053955078 -80.56800079345703,22.85700035095215 C-83.1969985961914,20.511999130249023 -88.49199676513672,21.965999603271484 -90.125,25.364999771118164 C-90.76200103759766,26.69300079345703 -91.55899810791016,28.072999954223633 -91.70700073242188,29.490999221801758 C-92.58599853515625,37.7859992980957 -92.6760025024414,46.29999923706055 -90.24600219726562,54.150001525878906 C-87.37799835205078,63.42599868774414 -87.01100158691406,73.7020034790039 -81.54100036621094,81.89099884033203 C-77.7040023803711,87.63500213623047 -75.73100280761719,94.0270004272461 -72.6520004272461,99.99299621582031 C-71.27999877929688,102.64700317382812 -69.9749984741211,105.38200378417969 -68.2249984741211,107.7770004272461 C-66.03299713134766,110.78500366210938 -66.96700286865234,113.25900268554688 -68.66999816894531,115.927001953125 C-69.4520034790039,117.15799713134766 -69.98699951171875,118.56099700927734 -70.55000305175781,119.91699981689453 C-71.17500305175781,121.40499877929688 -68.7249984741211,124.50800323486328 -67.07599639892578,124.8280029296875z"></path></g></g></g></svg>