<svg xmlns="http://www.w3.org/2000/svg" viewBox="0 0 420 250" preserveAspectRatio="none"><defs><clipPath id="__lottie_element_2"><rect width="420" height="250" x="0" y="0"></rect></clipPath><mask id="__lottie_element_3" mask-type="alpha"><g style="display: none;"><g><path></path><path stroke-linecap="round" stroke-linejoin="miter" fill-opacity="0" stroke-miterlimit="4"></path></g><g><path></path><path stroke-linecap="round" stroke-linejoin="miter" fill-opacity="0" stroke-miterlimit="4"></path></g></g></mask><mask id="__lottie_element_9" mask-type="alpha"><g transform="matrix(1,0,0,1,214.11599731445312,123.13600158691406)" opacity="1" style="display: block;"><g opacity="1" transform="matrix(1,0,0,1,0,-6)"><path stroke-linecap="round" stroke-linejoin="miter" fill-opacity="0" stroke-miterlimit="4" stroke="rgb(255,120,68)" stroke-opacity="1" stroke-width="37" d=" M-237.02999877929688,-35 C-239.02999877929688,-52 -246.572998046875,-50.49399948120117 -154.52999877929688,-63 C-118.57599639892578,-67.88500213623047 -78.36900329589844,-72.98500061035156 -28.875999450683594,-79.28500366210938 C1.090999960899353,-83.0999984741211 12.128999710083008,-85.9229965209961 41.58399963378906,-88.85099792480469 C47.97800064086914,-89.48699951171875 60.16400146484375,-88.0989990234375 66.99700164794922,-88.67400360107422 C109.72000122070312,-92.26799774169922 152.67999267578125,-96.39099884033203 171.47000122070312,-93.5 C229.97000122070312,-84.5 248.97000122070312,-74 200.47000122070312,-61.5 C186.17599487304688,-57.816001892089844 139.0919952392578,-49.553001403808594 83.53800201416016,-36.702999114990234 C-49.404998779296875,-5.952000141143799 -230.85299682617188,39.25299835205078 -127.52999877929688,25.5 C18.969999313354492,6 156.97000122070312,-18.5 158.97000122070312,14.5 C159.51600646972656,23.516000747680664 132.86900329589844,38.45199966430664 99.5479965209961,51.96099853515625 C10.911999702453613,87.89700317382812 -142.0989990234375,123.89600372314453 -42.529998779296875,105 C94.47000122070312,79 136.97000122070312,69 100.47000122070312,106"></path></g></g></mask></defs><g clip-path="url(#__lottie_element_2)"><g mask="url(#__lottie_element_9)" style="display: block;"><g transform="matrix(1.9500000476837158,0,0,1.9500000476837158,-33.75,-118.75)" opacity="1"><g opacity="1" transform="matrix(1,0,0,1,125,124.89700317382812)"><path fill="#111111" fill-opacity="1" d=" M123.35700225830078,-45.117000579833984 C121.17900085449219,-46.49700164794922 119.01200103759766,-47.992000579833984 116.63999938964844,-48.94499969482422 C112.45800018310547,-50.62200164794922 108.0739974975586,-51.80799865722656 103.86299896240234,-53.41899871826172 C98.40899658203125,-55.51100158691406 92.01499938964844,-53.9109992980957 87.02300262451172,-57.7859992980957 C86.56999969482422,-58.1349983215332 85.78299713134766,-58.1349983215332 85.1449966430664,-58.15299987792969 C80.58799743652344,-58.29499816894531 76.03199768066406,-58.48500061035156 71.4729995727539,-58.50600051879883 C63.00299835205078,-58.54899978637695 54.5369987487793,-58.48899841308594 46.066001892089844,-58.47600173950195 C42.15399932861328,-58.47200012207031 38.21900177001953,-58.20000076293945 34.34400177001953,-58.55400085449219 C30.386999130249023,-58.91600036621094 26.992000579833984,-54.98899841308594 23.148000717163086,-56.93899917602539 C18.871000289916992,-59.10599899291992 15.73799991607666,-56.13600158691406 12.067999839782715,-55.45100021362305 C8.256999969482422,-54.73899841308594 4.269999980926514,-54.52799987792969 0.39500001072883606,-54.73500061035156 C-4.4120001792907715,-54.98899841308594 -8.230999946594238,-51.80799865722656 -12.763999938964844,-51.51900100708008 C-18.61199951171875,-51.14899826049805 -24.483999252319336,-51.17900085449219 -30.33799934387207,-50.83399963378906 C-32.900001525878906,-50.68299865722656 -35.683998107910156,-50.566001892089844 -37.917999267578125,-49.492000579833984 C-42.21200180053711,-47.42900085449219 -46.678001403808594,-47.11000061035156 -51.22999954223633,-46.95399856567383 C-55.79499816894531,-46.79499816894531 -60.13999938964844,-46.25600051879883 -64.50299835205078,-44.426998138427734 C-67.98999786376953,-42.96500015258789 -72.26799774169922,-43.4739990234375 -75.87200164794922,-42.19900131225586 C-79.56999969482422,-40.893001556396484 -83.06999969482422,-39.422000885009766 -87.10199737548828,-39.369998931884766 C-92.30999755859375,-39.30099868774414 -97.83499908447266,-39.86600112915039 -102.62000274658203,-38.308998107910156 C-107.63400268554688,-36.680999755859375 -112.55699920654297,-35.55500030517578 -117.7300033569336,-34.91299819946289 C-120.36499786376953,-34.584999084472656 -122.302001953125,-32.68899917602539 -123.95099639892578,-30.56800079345703 C-125.78900146484375,-28.20800018310547 -125.23200225830078,-25.268999099731445 -122.12100219726562,-21.954999923706055 C-120.59400177001953,-20.32900047302246 -120.23200225830078,-20.55299949645996 -116.91300201416016,-24.46299934387207 C-116.11499786376953,-25.39900016784668 -115.11900329589844,-26.347000122070312 -114.01499938964844,-26.78700065612793 C-112.85399627685547,-27.253000259399414 -111.45500183105469,-27.18000030517578 -110.15699768066406,-27.236000061035156 C-95.30500030517578,-27.858999252319336 -80.23400115966797,-25.25200080871582 -65.6760025024414,-30.43000030517578 C-63.92100143432617,-31.05500030517578 -61.797000885009766,-30.641000747680664 -59.84299850463867,-30.7189998626709 C-54.6349983215332,-30.926000595092773 -49.41899871826172,-31.04199981689453 -44.21900177001953,-31.395999908447266 C-41.65999984741211,-31.56800079345703 -38.874000549316406,-31.659000396728516 -36.645999908447266,-32.72800064086914 C-32.32699966430664,-34.79600143432617 -27.874000549316406,-34.874000549316406 -23.305999755859375,-34.981998443603516 C-16.79800033569336,-35.132999420166016 -10.288000106811523,-35.459999084472656 -3.7780001163482666,-35.71099853515625 C3.484999895095825,-39.547000885009766 11.444999694824219,-38.38199996948242 19.17300033569336,-38.94300079345703 C28.160999298095703,-39.59400177001953 37.4640007019043,-37.5260009765625 46.040000915527344,-42.066001892089844 C47.09000015258789,-42.62200164794922 48.604000091552734,-42.393001556396484 49.90700149536133,-42.393001556396484 C66.84300231933594,-42.393001556396484 83.78199768066406,-42.388999938964844 100.71700286865234,-42.277000427246094 C101.51699829101562,-42.27299880981445 102.30999755859375,-41.242000579833984 103.10399627685547,-40.689998626708984 C102.5469970703125,-40.358001708984375 102.0260009765625,-39.823001861572266 101.4260025024414,-39.7239990234375 C95.71600341796875,-38.770999908447266 89.6500015258789,-39.856998443603516 84.31700134277344,-36.5989990234375 C83.26899719238281,-35.96099853515625 81.85399627685547,-35.766998291015625 80.58799743652344,-35.667999267578125 C76.04499816894531,-35.30500030517578 71.45999908447266,-35.30500030517578 66.9469985961914,-34.722999572753906 C62.48500061035156,-34.14899826049805 58.70100021362305,-30.90399932861328 53.88100051879883,-31.301000595092773 C51.24800109863281,-31.516000747680664 48.915000915527344,-30.12299919128418 46.46099853515625,-29.264999389648438 C39.7760009765625,-26.93000030517578 32.54100036621094,-26.597999572753906 25.92099952697754,-23.915000915527344 C18.582000732421875,-24.354999542236328 11.895000457763672,-21.700000762939453 5.13700008392334,-19.47100067138672 C-1.0149999856948853,-17.44099998474121 -7.103000164031982,-15.62600040435791 -13.70199966430664,-15.206999778747559 C-19.42300033569336,-14.845000267028809 -24.527000427246094,-11.03499984741211 -30.597000122070312,-11.20300006866455 C-32.39099884033203,-11.255000114440918 -34.20899963378906,-9.9350004196167 -36.02899932861328,-9.274999618530273 C-44.53900146484375,-6.202000141143799 -53.540000915527344,-4.5980000495910645 -61.757999420166016,-0.6579999923706055 C-70.97000122070312,0.46399998664855957 -78.30599975585938,6.728000164031982 -87.23600006103516,8.640999794006348 C-88.99800109863281,9.020000457763672 -88.79900360107422,11.654999732971191 -86.7229995727539,13.24899959564209 C-85.23500061035156,14.387999534606934 -83.43199920654297,15.836999893188477 -81.74800109863281,15.87600040435791 C-72.0479965209961,16.077999114990234 -62.20199966430664,17.31399917602539 -52.90299987792969,13.157999992370605 C-46.41899871826172,12.722999572753906 -39.93000030517578,12.309000015258789 -33.45000076293945,11.836999893188477 C-29.575000762939453,11.552000045776367 -25.312000274658203,12.085000038146973 -21.923999786376953,10.625 C-16.25,8.175000190734863 -10.517000198364258,8.369000434875488 -4.688000202178955,8.076000213623047 C3.0369999408721924,7.688000202178955 10.961999893188477,8.96399974822998 18.275999069213867,4.960000038146973 C19.83300018310547,4.105999946594238 22.094999313354492,4.428999900817871 24.040000915527344,4.415999889373779 C31.854999542236328,4.364999771118164 39.676998138427734,4.394999980926514 47.492000579833984,4.394999980926514 C47.492000579833984,4.2179999351501465 47.49599838256836,4.0370001792907715 47.5,3.859999895095825 C56.59199905395508,4.105999946594238 65.69000244140625,4.334000110626221 74.78099822998047,4.631999969482422 C75.36299896240234,4.6529998779296875 76.447998046875,5.425000190734863 76.41799926757812,5.499000072479248 C75.96700286865234,6.629000186920166 75.62200164794922,8.02400016784668 74.74700164794922,8.718000411987305 C73.26300048828125,9.88700008392334 71.52100372314453,11.0600004196167 69.72000122070312,11.4399995803833 C58.9640007019043,13.70199966430664 49.362998962402344,20.108999252319336 38.03300094604492,20.2549991607666 C23.750999450683594,26.343000411987305 8.335000038146973,29.22599983215332 -5.7829999923706055,35.78799819946289 C-8.125,36.87300109863281 -10.538000106811523,38.3650016784668 -13.00100040435791,38.53799819946289 C-23.166000366210938,39.249000549316406 -31.266000747680664,44.78900146484375 -39.75299835205078,49.43600082397461 C-40.784000396728516,50.000999450683594 -41.439998626708984,51.37699890136719 -42.05699920654297,52.492000579833984 C-42.25899887084961,52.862998962402344 -41.93600082397461,53.69499969482422 -41.62099838256836,54.1609992980957 C-39.650001525878906,57.053001403808594 -36.856998443603516,59.10599899291992 -33.45500183105469,57.70399856567383 C-29.743000030517578,56.17100143432617 -26.062000274658203,55.45000076293945 -22.118000030517578,55.27399826049805 C-18.229999542236328,55.10100173950195 -13.972999572753906,55.47200012207031 -10.555000305175781,54.0099983215332 C-3.0250000953674316,50.790000915527344 4.801000118255615,50.5359992980957 12.477999687194824,51.24300003051758 C19.68600082397461,51.9010009765625 26.24799919128418,47.667999267578125 33.4379997253418,49.50899887084961 C34.43000030517578,49.763999938964844 35.75400161743164,48.24599838256836 36.98500061035156,48.0989990234375 C40.18600082397461,47.720001220703125 43.41400146484375,47.606998443603516 46.63800048828125,47.494998931884766 C47.21500015258789,47.4739990234375 48.32400131225586,48.00400161743164 48.31100082397461,48.24100112915039 C48.263999938964844,49.29399871826172 48.104000091552734,50.45000076293945 47.5989990234375,51.35100173950195 C46.97800064086914,52.465999603271484 45.93199920654297,53.340999603271484 45.15999984741211,54.3849983215332 C44.229000091552734,55.64500045776367 44.051998138427734,57.0099983215332 44.992000579833984,57.62200164794922 C46.0099983215332,58.2859992980957 47.340999603271484,58.76499938964844 48.54399871826172,58.78200149536133 C51.25699996948242,58.82099914550781 53.48400115966797,57.540000915527344 55.4119987487793,55.63600158691406 C59.6619987487793,51.42900085449219 59.72700119018555,45.52199935913086 55.31700134277344,42.05500030517578 C53.29899978637695,40.4739990234375 50.89400100708008,39.39099884033203 48.78499984741211,37.9119987487793 C47.83700180053711,37.24399948120117 47.974998474121094,35.81800079345703 49.22999954223633,34.8129997253418 C54.86399841308594,30.299999237060547 61.65700149536133,27.83300018310547 68.05999755859375,24.785999298095703 C74.78099822998047,21.591999053955078 79.83799743652344,16.785999298095703 84.45899963378906,11.262999534606934 C87.26000213623047,7.915999889373779 86.46700286865234,1.7660000324249268 82.89399719238281,-1.0369999408721924 C81.87200164794922,-1.840000033378601 80.95899963378906,-2.9159998893737793 79.79900360107422,-3.377000093460083 C75.01399993896484,-5.2789998054504395 70.5999984741211,-8.434000015258789 65.10700225830078,-8.093000411987305 C60.91699981689453,-7.836999893188477 57.8120002746582,-10.625 54.18299865722656,-11.932000160217285 C53.63100051879883,-12.130000114440918 53.03099822998047,-12.690999984741211 52.82400131225586,-13.222999572753906 C52.487998962402344,-14.086000442504883 53.375999450683594,-15.074000358581543 55.01100158691406,-15.017999649047852 C61.74800109863281,-14.78499984741211 67.3949966430664,-18.78499984741211 73.81900024414062,-19.68199920654297 C80.04900360107422,-23.69499969482422 87.63600158691406,-22.62299919128418 94.33599853515625,-25.200000762939453 C100.33300018310547,-27.507999420166016 106.41000366210938,-29.743999481201172 112.69999694824219,-31.378000259399414 C116.3550033569336,-32.32699966430664 119.7020034790039,-34.597999572753906 123.08100128173828,-36.46500015258789 C125.51799774169922,-37.808998107910156 125.66000366210938,-43.654998779296875 123.35700225830078,-45.117000579833984z"></path></g></g></g><g mask="url(#__lottie_element_3)" style="display: none;"><g><g><path></path></g></g></g></g></svg>